<svg width="300" height="300" viewBox="0 0 300 300" fill="none" xmlns="http://www.w3.org/2000/svg">
  <path d="M209.8,132.1h-42.7v-17.5c0-4.8,3.9-8.8,8.8-8.8h33.9c4.8,0,8.8,3.9,8.8,8.8v8.8C218.6,128.2,214.7,132.1,209.8,132.1z M115.7,176.3v-26.3H98.2v26.3c0,9.7-7.9,17.5-17.5,17.5h-8.8v17.5h8.8c19.4,0,35.1-15.7,35.1-35.1z M228.4,158.8c-4.8,0-8.8-3.9-8.8-8.8v-8.8h-52.6v61.4h17.5v-43.9h26.3v8.8c0,4.8,3.9,8.8,8.8,8.8h8.8v43.9h17.5v-61.4H228.4z M167.1,96.9c0-19.4-15.7-35.1-35.1-35.1c-19.4,0-35.1,15.7-35.1,35.1v35.1h17.5V96.9c0-9.7,7.9-17.5,17.5-17.5c9.7,0,17.5,7.9,17.5,17.5v8.8h17.5V96.9z M132,114.5v43.9h-17.5v-43.9c-5.3,0-9.5-4.3-9.5-9.5c0-5.3,4.3-9.5,9.5-9.5c5.3,0,9.5,4.3,9.5,9.5C124.1,109.4,127.2,113.1,132,114.5z M80.7,132.1c-19.4,0-35.1,15.7-35.1,35.1v8.8c0,19.4,15.7,35.1,35.1,35.1h8.8v-17.5h-8.8c-9.7,0-17.5-7.9-17.5-17.5v-8.8c0-9.7,7.9-17.5,17.5-17.5h8.8v-17.5H80.7z" fill="#FF7A59"/>
</svg>