<svg width="300" height="300" viewBox="0 0 300 300" fill="none" xmlns="http://www.w3.org/2000/svg">
  <path d="M232.8,150c0,16.6-6.4,32.2-18.1,43.9c-11.7,11.7-27.3,18.2-43.9,18.2c-12.2,0-23.9-3.5-34-10c-1.2-0.8-3-0.5-3.8,0.8l-20.5,33.5c-0.8,1.3-0.4,3,0.9,3.8c17.6,10.7,38,16.9,59.9,16.9c63.5,0,115-51.5,115-115c0-21.9-6.1-42.3-16.8-60c-0.8-1.3-2.5-1.6-3.8-0.8l-33.5,20.5c-1.3,0.8-1.6,2.6-0.8,3.8C230,116.6,232.8,132.9,232.8,150z M150,232.8c-16.6,0-32.2-6.4-43.9-18.1c-11.7-11.7-18.2-27.3-18.2-43.9c0-12.2,3.5-23.9,10.1-34c0.8-1.2,0.5-3-0.8-3.8l-33.5-20.5c-1.3-0.8-3-0.4-3.8,0.9c-10.7,17.6-16.9,38-16.9,59.9c0,63.5,51.5,115,115,115c21.9,0,42.3-6.1,60-16.8c1.3-0.8,1.6-2.5,0.8-3.8l-20.5-33.5c-0.8-1.3-2.6-1.6-3.8-0.8C183.4,230.1,167.1,232.8,150,232.8z M110.4,132.8c-1.4-0.8-1.9-2.6-1.2-4l22.8-40c0.8-1.4,2.6-1.9,4-1.2l12.1,6.8c1.4,0.8,3.2,0.3,4-1.1l4-7.1c0.8-1.4,2.6-1.9,4-1.1l61.1,35.3c1.4,0.8,1.9,2.6,1.1,4L200.5,164c-0.8,1.4-2.6,1.9-4,1.1l-12.1-7c-1.4-0.8-3.2-0.3-4,1.1l-4,7c-0.8,1.4-2.6,1.9-4,1.1L110.4,132.8z" fill="#FF6D5A"/>
</svg>