<svg width="300" height="300" viewBox="0 0 300 300" fill="none" xmlns="http://www.w3.org/2000/svg">
  <path d="M140.3,0h19.4v19.4h-19.4V0z M70.1,22.1h19.4v19.4H70.1V22.1z M140.3,22.1h19.4v19.4h-19.4V22.1z M210.5,22.1h19.4v19.4h-19.4V22.1z M105.2,46.8h19.4v19.4h-19.4V46.8z M175.4,46.8h19.4v19.4h-19.4V46.8z M35,70.1h19.4v19.4H35V70.1z M105.2,70.1h19.4v19.4h-19.4V70.1z M175.4,70.1h19.4v19.4h-19.4V70.1z M245.6,70.1H265v19.4h-19.4V70.1z M70.1,93.9h19.4v19.4H70.1V93.9z M140.3,93.9h19.4v19.4h-19.4V93.9z M210.5,93.9h19.4v19.4h-19.4V93.9z M105.2,118h19.4v19.4h-19.4V118z M175.4,118h19.4v19.4h-19.4V118z M35,140.3h19.4v19.4H35V140.3z M105.2,140.3h19.4v19.4h-19.4V140.3z M175.4,140.3h19.4v19.4h-19.4V140.3z M245.6,140.3H265v19.4h-19.4V140.3z M70.1,164.2h19.4v19.4H70.1V164.2z M140.3,164.2h19.4v19.4h-19.4V164.2z M210.5,164.2h19.4v19.4h-19.4V164.2z M105.2,188.3h19.4v19.4h-19.4V188.3z M175.4,188.3h19.4v19.4h-19.4V188.3z M35,210.5h19.4v19.4H35V210.5z M105.2,210.5h19.4v19.4h-19.4V210.5z M175.4,210.5h19.4v19.4h-19.4V210.5z M245.6,210.5H265v19.4h-19.4V210.5z M70.1,234.3h19.4v19.4H70.1V234.3z M140.3,234.3h19.4v19.4h-19.4V234.3z M210.5,234.3h19.4v19.4h-19.4V234.3z M140.3,258.2h19.4v19.4h-19.4V258.2z" fill="#E8762D"/>
</svg>
